<svg width="24" height="22" viewBox="0 0 24 22" fill="none" xmlns="http://www.w3.org/2000/svg">
<path d="M10.6 15.6L17.65 8.55L16.25 7.15L10.6 12.8L7.75 9.95L6.35 11.35L10.6 15.6ZM12 21C10.6167 21 9.31667 20.7373 8.1 20.212C6.88333 19.6867 5.825 18.9743 4.925 18.075C4.025 17.175 3.31267 16.1167 2.788 14.9C2.26333 13.6833 2.00067 12.3833 2 11C2 9.61667 2.26267 8.31667 2.788 7.1C3.31333 5.88333 4.02567 4.825 4.925 3.925C5.825 3.025 6.88333 2.31267 8.1 1.788C9.31667 1.26333 10.6167 1.00067 12 1C13.3833 1 14.6833 1.26267 15.9 1.788C17.1167 2.31333 18.175 3.02567 19.075 3.925C19.975 4.825 20.6877 5.88333 21.213 7.1C21.7383 8.31667 22.0007 9.61667 22 11C22 12.3833 21.7373 13.6833 21.212 14.9C20.6867 16.1167 19.9743 17.175 19.075 18.075C18.175 18.975 17.1167 19.6877 15.9 20.213C14.6833 20.7383 13.3833 21.0007 12 21Z" fill="#38B44A"/>
</svg>
