<svg width="28" height="28" viewBox="0 0 28 28" fill="none" xmlns="http://www.w3.org/2000/svg">
<path d="M23.8826 2.33219H4.1193C3.89714 2.32911 3.67655 2.36982 3.47012 2.45199C3.2637 2.53417 3.07548 2.6562 2.91623 2.81113C2.75697 2.96605 2.62979 3.15083 2.54195 3.35491C2.45412 3.55898 2.40734 3.77837 2.4043 4.00053V23.9972C2.40734 24.2194 2.45412 24.4387 2.54195 24.6428C2.62979 24.8469 2.75697 25.0317 2.91623 25.1866C3.07548 25.3415 3.2637 25.4636 3.47012 25.5457C3.67655 25.6279 3.89714 25.6686 4.1193 25.6655H23.8826C24.1048 25.6686 24.3254 25.6279 24.5318 25.5457C24.7382 25.4636 24.9264 25.3415 25.0857 25.1866C25.245 25.0317 25.3721 24.8469 25.46 24.6428C25.5478 24.4387 25.5946 24.2194 25.5976 23.9972V4.00053C25.5946 3.77837 25.5478 3.55898 25.46 3.35491C25.3721 3.15083 25.245 2.96605 25.0857 2.81113C24.9264 2.6562 24.7382 2.53417 24.5318 2.45199C24.3254 2.36982 24.1048 2.32911 23.8826 2.33219ZM9.4393 21.8622H5.9393V11.3622H9.4393V21.8622ZM7.6893 9.89219C7.2066 9.89219 6.74368 9.70044 6.40236 9.35913C6.06105 9.01781 5.8693 8.55489 5.8693 8.07219C5.8693 7.5895 6.06105 7.12658 6.40236 6.78526C6.74368 6.44394 7.2066 6.25219 7.6893 6.25219C7.94561 6.22313 8.20517 6.24852 8.45098 6.32672C8.6968 6.40493 8.92333 6.53417 9.11573 6.70598C9.30813 6.8778 9.46208 7.08832 9.56748 7.32376C9.67288 7.55919 9.72737 7.81424 9.72737 8.07219C9.72737 8.33015 9.67288 8.58519 9.56748 8.82063C9.46208 9.05607 9.30813 9.26659 9.11573 9.43841C8.92333 9.61022 8.6968 9.73946 8.45098 9.81766C8.20517 9.89586 7.94561 9.92126 7.6893 9.89219ZM22.0626 21.8622H18.5626V16.2272C18.5626 14.8155 18.061 13.8939 16.7893 13.8939C16.3957 13.8967 16.0125 14.0202 15.6913 14.2476C15.37 14.4749 15.1262 14.7953 14.9926 15.1655C14.9013 15.4397 14.8618 15.7285 14.876 16.0172V21.8505H11.376V11.3505H14.876V12.8322C15.1939 12.2805 15.6564 11.826 16.2135 11.5176C16.7706 11.2092 17.4013 11.0587 18.0376 11.0822C20.371 11.0822 22.0626 12.5872 22.0626 15.8189V21.8622Z" fill="#0966C2"/>
</svg>
