<svg width="20" height="20" viewBox="0 0 20 20" fill="none" xmlns="http://www.w3.org/2000/svg">
<path d="M3.33332 16.6666C2.87499 16.6666 2.48249 16.5033 2.15582 16.1766C1.82916 15.8499 1.6661 15.4577 1.66666 14.9999V4.99992C1.66666 4.54159 1.82999 4.14909 2.15666 3.82242C2.48332 3.49575 2.87555 3.3327 3.33332 3.33325H16.6667C17.125 3.33325 17.5175 3.49659 17.8442 3.82325C18.1708 4.14992 18.3339 4.54214 18.3333 4.99992V14.9999C18.3333 15.4583 18.17 15.8508 17.8433 16.1774C17.5167 16.5041 17.1244 16.6671 16.6667 16.6666H3.33332ZM9.99999 10.6874C10.0694 10.6874 10.1425 10.6769 10.2192 10.6558C10.2958 10.6346 10.3686 10.6035 10.4375 10.5624L16.3333 6.87492C16.4444 6.80548 16.5278 6.71853 16.5833 6.61409C16.6389 6.50964 16.6667 6.3952 16.6667 6.27075C16.6667 5.99298 16.5486 5.78464 16.3125 5.64575C16.0764 5.50686 15.8333 5.51381 15.5833 5.66659L9.99999 9.16659L4.41666 5.66659C4.16666 5.51381 3.9236 5.51048 3.68749 5.65659C3.45138 5.8027 3.33332 6.00742 3.33332 6.27075C3.33332 6.40964 3.3611 6.53131 3.41666 6.63575C3.47221 6.7402 3.55555 6.81992 3.66666 6.87492L9.56249 10.5624C9.63194 10.6041 9.70499 10.6355 9.78166 10.6566C9.85832 10.6777 9.9311 10.688 9.99999 10.6874Z" fill="#38B44A"/>
</svg>
