<svg width="32" height="32" viewBox="0 0 32 32" fill="none" xmlns="http://www.w3.org/2000/svg">
<path d="M16 2.66699C8.64 2.66699 2.66667 8.64033 2.66667 16.0003C2.66667 23.3603 8.64 29.3337 16 29.3337C23.36 29.3337 29.3333 23.3603 29.3333 16.0003C29.3333 8.64033 23.36 2.66699 16 2.66699ZM16 26.667C10.12 26.667 5.33333 21.8803 5.33333 16.0003C5.33333 10.1203 10.12 5.33366 16 5.33366C21.88 5.33366 26.6667 10.1203 26.6667 16.0003C26.6667 21.8803 21.88 26.667 16 26.667ZM21.1733 11.0537L13.3333 18.8937L10.8267 16.387C10.5774 16.1377 10.2392 15.9976 9.88667 15.9976C9.5341 15.9976 9.19597 16.1377 8.94667 16.387C8.69736 16.6363 8.55731 16.9744 8.55731 17.327C8.55731 17.6796 8.69736 18.0177 8.94667 18.267L12.4 21.7203C12.92 22.2403 13.76 22.2403 14.28 21.7203L23.0667 12.9337C23.1903 12.8103 23.2883 12.6638 23.3552 12.5025C23.4222 12.3412 23.4566 12.1683 23.4566 11.9937C23.4566 11.819 23.4222 11.6461 23.3552 11.4848C23.2883 11.3235 23.1903 11.177 23.0667 11.0537C22.5467 10.5337 21.6933 10.5337 21.1733 11.0537Z" fill="#38B44A"/>
</svg>
