<svg width="32" height="32" viewBox="0 0 32 32" fill="none" xmlns="http://www.w3.org/2000/svg">
<path d="M16 2.66699C8.64002 2.66699 2.66669 8.64033 2.66669 16.0003C2.66669 23.3603 8.64002 29.3337 16 29.3337C23.36 29.3337 29.3334 23.3603 29.3334 16.0003C29.3334 8.64033 23.36 2.66699 16 2.66699ZM16 26.667C10.12 26.667 5.33335 21.8803 5.33335 16.0003C5.33335 10.1203 10.12 5.33366 16 5.33366C21.88 5.33366 26.6667 10.1203 26.6667 16.0003C26.6667 21.8803 21.88 26.667 16 26.667Z" fill="#E92D4F"/>
<rect x="10" y="20.8291" width="15.3386" height="2.5" rx="1.25" transform="rotate(-44.8458 10 20.8291)" fill="#E92D4F"/>
<rect x="20.8584" y="22.6143" width="15.3386" height="2.5" rx="1.25" transform="rotate(-135 20.8584 22.6143)" fill="#E92D4F"/>
</svg>
